<svg width="40" height="40" viewBox="0 0 40 40" fill="none" xmlns="http://www.w3.org/2000/svg">
<path d="M20 38.0182C30.197 38.0182 38.5 29.8634 38.5 19.7591C38.5 9.65476 30.197 1.5 20 1.5C9.80299 1.5 1.5 9.65476 1.5 19.7591C1.5 29.8634 9.80299 38.0182 20 38.0182Z" fill="white" fill-opacity="0.01" stroke="#C2C2C2" stroke-width="3"/>
<path d="M21.1967 28.6801L13.4508 21.0439C12.8497 20.4482 12.8497 19.4861 13.4508 18.8905L21.1967 11.2543C21.7761 10.764 22.6328 10.764 23.2122 11.2543C23.8613 11.8026 23.9372 12.7677 23.381 13.4077L16.7351 19.9595L23.3811 26.5267C23.9822 27.1223 23.9822 28.0844 23.3811 28.6801C22.7769 29.2727 21.8009 29.2727 21.1967 28.6801Z" fill="#C2C2C2"/>
</svg>
