<svg width="40" height="40" viewBox="0 0 40 40" fill="none" xmlns="http://www.w3.org/2000/svg">
<path d="M20 38.0182C30.197 38.0182 38.5 29.8634 38.5 19.7591C38.5 9.65476 30.197 1.5 20 1.5C9.80299 1.5 1.5 9.65476 1.5 19.7591C1.5 29.8634 9.80299 38.0182 20 38.0182Z" fill="white" fill-opacity="0.01" stroke="#C2C2C2" stroke-width="3"/>
<path d="M18.6352 11.331L26.3811 18.9672C26.9822 19.5629 26.9822 20.525 26.3811 21.1207L18.6352 28.7568C18.0558 29.2471 17.1991 29.2471 16.6197 28.7568C15.9706 28.2086 15.8947 27.2434 16.4509 26.6034L23.0968 20.0516L16.4508 13.4845C15.8497 12.8888 15.8497 11.9267 16.4508 11.331C17.055 10.7385 18.031 10.7385 18.6352 11.331Z" fill="#C2C2C2"/>
</svg>
